<svg xmlns="http://www.w3.org/2000/svg" preserveAspectRatio="xMidYMid" width="37.313" height="37.32"><circle cx="18.656" cy="18.66" r="18.656" fill="#0388ef"/><path d="M28.326 23.258h-1.568v-.954c-.019-.672-.24-1.283-.626-1.785-.274-.371-.626-.68-1.028-.885-.436-.235-.931-.363-1.456-.363-1.627 0-2.971 1.26-3.099 2.859v1.434h-4.47v-1.399c-.05-.595-.27-1.132-.602-1.584-.275-.371-.623-.676-1.04-.885-.428-.232-.923-.363-1.452-.363-1.696 0-3.079 1.364-3.107 3.06v.089h-.015v.95H7.622c.074-.185.124-.402.124-.634 0-.336-.108-.656-.286-.923h.668v-4.451l4.687-.367 2.318-4.215 12.571.093.027 8.751h.495c-.054.201-.085.409-.085.637 0 .34.069.668.185.935zm-8.886-9.114l-3.689-.104-1.804 3.091h4.578l.915.927v-3.914zm-6.498 5.502c.468 0 .908.112 1.294.313.371.197.688.467.939.807.344.456.553 1.032.553 1.658 0 1.541-1.244 2.797-2.786 2.797-1.537 0-2.789-1.256-2.789-2.797 0-.012 0-.031.007-.043.024-1.514 1.256-2.735 2.782-2.735zm-1.723 2.847c0 .951.777 1.723 1.727 1.723.951 0 1.731-.772 1.731-1.723 0-.386-.136-.742-.344-1.035-.155-.205-.352-.371-.58-.491-.239-.131-.513-.197-.807-.197-.943 0-1.711.75-1.727 1.696v.027zm12.383-2.758c.471 0 .915.112 1.305.32.367.19.68.464.927.796.356.472.553 1.039.553 1.665 0 1.542-1.24 2.79-2.785 2.79-1.53 0-2.782-1.248-2.782-2.79v-.042c.023-1.518 1.263-2.739 2.782-2.739zm-1.716 2.847c0 .962.773 1.727 1.719 1.727.966 0 1.739-.765 1.739-1.727 0-.386-.136-.746-.352-1.035-.15-.197-.344-.375-.576-.491-.239-.131-.513-.201-.811-.201-.938 0-1.7.757-1.719 1.704v.023z" fill="#fff" fill-rule="evenodd"/></svg>