<svg xmlns="http://www.w3.org/2000/svg" preserveAspectRatio="xMidYMid" width="33.625" height="33.656"><circle cx="16.813" cy="16.828" r="16.813" fill="#0fe994"/><path d="M8.22 21.567l.832-1.963s1.246.868 3.58 1.45c.708.174 1.505.33 2.361.425 1.071.112 2.258.14 3.524.004.761-.075 1.561-.223 2.381-.429 1.207-.307 2.219-.654 3.493-1.323l.769 1.761c-8.017 4.957-16.94.075-16.94.075zm10.078-.681c-1.147.128-2.234.092-3.206-.008-.784-.079-1.513-.219-2.162-.382-2.122-.534-3.424-1.322-3.424-1.322 2.461-1.063 2.604-6.137 2.604-6.137h.016c-.012-.123-.016-.239-.016-.366 0-2.728 2.035-4.934 4.543-4.934 2.513 0 4.552 2.206 4.552 4.934 0 .059-.008.119-.008.183l.008-.004c.167 4.384 2.684 6.324 2.684 6.324-1.171.605-2.313 1.039-3.413 1.322-.748.191-1.481.319-2.178.39zm-.163 3.859v.016c0 .892-.629 1.612-1.41 1.612-.764 0-1.394-.72-1.394-1.612v-.024c.853.115 1.804.139 2.804.008z" fill="#fff" fill-rule="evenodd"/></svg>