<svg xmlns="http://www.w3.org/2000/svg" preserveAspectRatio="xMidYMid" width="33.625" height="33.625"><circle cx="16.813" cy="16.813" r="16.813" fill="#7a60fd"/><path d="M22.361 14.707c0 .244-.35.451-.807.504v.012h-9.616v-.003c-.519-.019-.929-.241-.929-.513 0-.156.147-.303.372-.4-.019-.034-.028-.072-.028-.109 0-.122.056-.225.131-.294-.081-.382-.131-.767-.131-1.164 0-3.03 2.414-5.488 5.391-5.488 2.984 0 5.398 2.458 5.398 5.488 0 .438-.062.863-.15 1.273.113.063.204.194.204.35 0 .022-.013.041-.013.053.11.082.178.179.178.291zm-5.61-6.004c2.961 2.032 3.381 4.419 3.381 4.419.706-4.813-3.381-4.419-3.381-4.419zm4.666 7.88l-4.916 11.861-4.435-11.883-.066-.222h9.495l-.078.244z" fill="#fff" fill-rule="evenodd"/></svg>