<svg xmlns="http://www.w3.org/2000/svg" width="23" height="23"><g fill-rule="evenodd"><path d="M11.168 15.204c.511 0 .925.415.925.926v4.627c0 .511-.414.926-.925.926-.511 0-.926-.415-.926-.926V16.13c0-.511.415-.926.926-.926z" fill="#99c7ff"/><path d="M22.017 10.834c0 .511-.415.925-.926.925h-4.627c-.511 0-.926-.414-.926-.925 0-.511.415-.926.926-.926h4.627c.511 0 .926.415.926.926z" opacity=".5" fill="#e5f1ff"/><path d="M6.488 10.834c0 .511-.414.925-.925.925H.935c-.511 0-.925-.414-.925-.925 0-.511.414-.926.925-.926h4.628c.511 0 .925.415.925.926z" fill="#4c9dff"/><path d="M8.604 14.578c.437.263.578.832.315 1.27l-2.388 3.964c-.264.437-.832.579-1.27.315-.438-.264-.579-.833-.315-1.27l2.387-3.964c.264-.438.833-.579 1.271-.315z" fill="#7fb9ff"/><path d="M20.461 16.432c-.264.438-.833.579-1.27.315l-3.964-2.388c-.438-.263-.579-.832-.315-1.27.263-.438.832-.579 1.27-.315l3.964 2.387c.437.264.579.833.315 1.271z" fill="#cce3ff" opacity=".6"/><path d="M7.115 8.579c-.264.438-.833.579-1.27.315L1.881 6.507c-.438-.264-.579-.833-.315-1.271.263-.438.832-.579 1.27-.315L6.8 7.309c.438.263.579.832.315 1.27z" fill="#338fff"/><path d="M20.662 5.585c.247.447.085 1.01-.362 1.258l-4.05 2.239c-.447.247-1.01.085-1.257-.363-.248-.447-.086-1.01.362-1.257l4.049-2.239c.448-.248 1.011-.085 1.258.362z" opacity=".3" fill="#e5f1ff"/><path d="M7.034 12.948c.247.448.085 1.011-.362 1.258l-4.05 2.239c-.447.247-1.01.085-1.258-.362-.247-.447-.085-1.01.362-1.258l4.05-2.239c.447-.247 1.01-.085 1.258.362z" fill="#66abff"/><path d="M16.417 20.328c-.447.247-1.01.085-1.258-.362l-2.239-4.05c-.247-.447-.085-1.01.362-1.257.448-.248 1.011-.086 1.258.362l2.239 4.049c.247.448.085 1.011-.362 1.258z" fill="#b2d5ff" opacity=".8"/><path d="M8.744 7.009c-.447.248-1.01.085-1.258-.362l-2.239-4.05C5 2.15 5.162 1.587 5.609 1.34c.448-.248 1.011-.085 1.258.362l2.239 4.05c.247.447.085 1.01-.362 1.257z" fill="#1981ff"/><path d="M10.859-.015c.511 0 .925.415.925.926v4.627c0 .511-.414.926-.925.926-.512 0-.926-.415-.926-.926V.911c0-.511.414-.926.926-.926z" fill="#0072ff"/></g></svg>