<svg xmlns="http://www.w3.org/2000/svg" width="45" height="45"><g fill-rule="evenodd"><path d="M21.452.007c1.012 0 1.831.82 1.831 1.831v9.154c0 1.012-.819 1.831-1.831 1.831-1.011 0-1.83-.819-1.83-1.831V1.838c0-1.011.819-1.831 1.83-1.831z" fill="#ffe853"/><path d="M22.065 30.115c1.011 0 1.83.819 1.83 1.831V41.1c0 1.011-.819 1.831-1.83 1.831-1.012 0-1.831-.82-1.831-1.831v-9.154c0-1.012.819-1.831 1.831-1.831z" fill="#e16567"/><path d="M43.526 21.469c0 1.011-.819 1.831-1.831 1.831h-9.154c-1.011 0-1.831-.82-1.831-1.831 0-1.011.82-1.831 1.831-1.831h9.154c1.012 0 1.831.82 1.831 1.831z" fill="#b55e60" opacity=".4"/><path d="M12.807 21.469c0 1.011-.82 1.831-1.831 1.831H1.821c-1.011 0-1.83-.82-1.83-1.831 0-1.011.819-1.831 1.83-1.831h9.155c1.011 0 1.831.82 1.831 1.831z" fill="#ffac64"/><path d="M32.526 3.085c.866.522 1.146 1.647.624 2.513l-4.724 7.841c-.521.867-1.646 1.146-2.513.624-.866-.522-1.145-1.647-.623-2.513l4.723-7.841c.522-.867 1.647-1.146 2.513-.624z" opacity=".2" fill="#c4a4a5"/><path d="M16.991 28.875c.867.522 1.146 1.647.624 2.513l-4.724 7.841c-.521.867-1.646 1.146-2.513.624-.866-.522-1.145-1.647-.623-2.513l4.723-7.842c.522-.866 1.647-1.145 2.513-.623z" fill="#ff7f64"/><path d="M40.449 32.543c-.522.866-1.647 1.145-2.513.623l-7.842-4.723c-.866-.522-1.145-1.647-.624-2.513.522-.866 1.647-1.145 2.513-.624l7.842 4.724c.866.522 1.145 1.647.624 2.513z" opacity=".6" fill="#dc595c"/><path d="M14.046 17.008c-.521.866-1.646 1.145-2.512.623l-7.842-4.723c-.866-.522-1.145-1.647-.624-2.513.522-.866 1.647-1.145 2.513-.624l7.842 4.724c.866.522 1.145 1.647.623 2.513z" fill="#ffc064"/><path d="M40.847 11.085c.489.885.168 1.999-.717 2.488l-8.011 4.429c-.885.489-1.999.169-2.488-.716-.489-.885-.169-1.999.716-2.488l8.012-4.43c.885-.489 1.999-.168 2.488.717z" fill="#c98485" opacity=".2"/><path d="M13.886 25.652c.489.885.169 1.999-.716 2.488l-8.012 4.429c-.885.49-1.999.169-2.488-.716-.489-.885-.168-1.999.716-2.488l8.012-4.429c.885-.49 1.999-.169 2.488.716z" fill="#ff9764"/><path d="M32.449 40.251c-.885.49-1.999.169-2.488-.716l-4.43-8.012c-.489-.885-.168-1.999.717-2.488.885-.489 1.999-.168 2.488.717l4.429 8.011c.489.885.169 1.999-.716 2.488z" opacity=".8" fill="#dc595c"/><path d="M17.269 13.903c-.885.489-1.999.168-2.488-.717l-4.429-8.011c-.489-.885-.169-1.999.716-2.488.885-.49 1.999-.169 2.488.716l4.43 8.011c.489.885.168 1.999-.717 2.489z" fill="#ffd55e"/></g></svg>